<svg width="414" height="177" viewBox="0 0 414 177" fill="none" xmlns="http://www.w3.org/2000/svg">
<path fill-rule="evenodd" clip-rule="evenodd" d="M0 123.353H20.3891L49.9583 70.6242L79.5276 123.353H99V102.27H85.3828L49.8519 70.5291L18.1109 102.27H0V123.353Z" fill="black"/>
<path fill-rule="evenodd" clip-rule="evenodd" d="M0 17.4785H20.3891L49.9583 70.2077L79.5276 17.4785H99V38.5618H85.3828L49.8519 70.3028L18.1109 38.5618H0V17.4785Z" fill="black"/>
<g filter="url(#filter0_d_132_1133)">
<path d="M135 120.816V20.016H178.776C185.112 20.016 190.632 21.12 195.336 23.328C200.04 25.536 203.688 28.656 206.28 32.688C208.872 36.72 210.168 41.472 210.168 46.944V48.672C210.168 54.72 208.728 59.616 205.848 63.36C202.968 67.104 199.416 69.84 195.192 71.568V74.16C199.032 74.352 202.008 75.696 204.12 78.192C206.232 80.592 207.288 83.808 207.288 87.84V120.816H188.28V90.576C188.28 88.272 187.656 86.4 186.408 84.96C185.256 83.52 183.288 82.8 180.504 82.8H154.008V120.816H135ZM154.008 65.52H176.76C181.272 65.52 184.776 64.32 187.272 61.92C189.864 59.424 191.16 56.16 191.16 52.128V50.688C191.16 46.656 189.912 43.44 187.416 41.04C184.92 38.544 181.368 37.296 176.76 37.296H154.008V65.52Z" fill="black"/>
<path d="M245.053 120.816V86.112L210.781 20.016H231.949L253.261 63.216H255.853L277.165 20.016H298.333L264.061 86.112V120.816H245.053Z" fill="black"/>
<path d="M338.898 122.832C326.418 122.832 316.53 119.376 309.234 112.464C301.938 105.456 298.29 95.472 298.29 82.512V58.32C298.29 45.36 301.938 35.424 309.234 28.512C316.53 21.504 326.418 18 338.898 18C351.282 18 360.834 21.408 367.554 28.224C374.37 34.944 377.778 44.208 377.778 56.016V56.88H359.058V55.44C359.058 49.488 357.378 44.592 354.018 40.752C350.754 36.912 345.714 34.992 338.898 34.992C332.178 34.992 326.898 37.056 323.058 41.184C319.218 45.312 317.298 50.928 317.298 58.032V82.8C317.298 89.808 319.218 95.424 323.058 99.648C326.898 103.776 332.178 105.84 338.898 105.84C345.714 105.84 350.754 103.92 354.018 100.08C357.378 96.144 359.058 91.248 359.058 85.392V82.8H377.778V84.816C377.778 96.624 374.37 105.936 367.554 112.752C360.834 119.472 351.282 122.832 338.898 122.832Z" fill="black"/>
</g>
<defs>
<filter id="filter0_d_132_1133" x="99" y="0" width="314.778" height="176.832" filterUnits="userSpaceOnUse" color-interpolation-filters="sRGB">
<feFlood flood-opacity="0" result="BackgroundImageFix"/>
<feColorMatrix in="SourceAlpha" type="matrix" values="0 0 0 0 0 0 0 0 0 0 0 0 0 0 0 0 0 0 127 0" result="hardAlpha"/>
<feOffset dy="18"/>
<feGaussianBlur stdDeviation="18"/>
<feComposite in2="hardAlpha" operator="out"/>
<feColorMatrix type="matrix" values="0 0 0 0 0 0 0 0 0 0 0 0 0 0 0 0 0 0 0.15 0"/>
<feBlend mode="normal" in2="BackgroundImageFix" result="effect1_dropShadow_132_1133"/>
<feBlend mode="normal" in="SourceGraphic" in2="effect1_dropShadow_132_1133" result="shape"/>
</filter>
</defs>
</svg>
