<?xml version="1.0" encoding="utf-8" ?><svg xmlns="http://www.w3.org/2000/svg" xmlns:xlink="http://www.w3.org/1999/xlink" width="1024" height="1024" viewBox="0 0 1024 1024"><path transform="scale(2 2)" d="M313.458 98.7575C311.407 98.8156 307.716 97.887 307.342 95.4692C305.773 85.3186 306.631 67.7655 306.859 56.6718C307.053 53.4224 309.091 51.9502 311.96 51.2984C317.347 51.3209 318.269 54.7256 318.269 59.281C318.269 70.65 318.286 82.0247 318.331 93.3913C318.343 96.3286 315.977 97.907 313.458 98.7575Z"/><path transform="scale(2 2)" d="M344.435 107.71C338.323 108.229 335.014 101.901 339.202 97.3411C344.374 92.0631 361.61 72.2255 366.015 70.261C373.122 69.9257 374.945 75.6273 370.828 80.4131C366.656 85.262 348.503 105.623 344.435 107.71Z"/><path transform="scale(2 2)" d="M62.4976 210.358C64.8879 206.006 67.6603 201.657 70.154 197.329L108.373 131.18C110.864 126.876 113.749 121.507 116.495 117.456L395.668 117.456C399.667 125.6 405.698 135.041 410.347 142.947L443.371 198.145C445.813 202.106 448.505 206.152 450.431 210.358C446.937 212.767 435.989 227.325 432.554 231.696L336.199 350.938C330.739 357.754 324.877 364.571 319.536 371.359C299.648 396.493 279.014 421.036 259.391 446.374C255.415 451.508 250.809 443.446 248.353 440.393L237.105 426.208L77.2669 229.004C72.4414 223.091 67.8496 216.109 62.7228 210.596L62.4976 210.358ZM215.64 129.453L123.182 129.453C109.468 154.079 94.9737 179.578 80.3234 203.715L89.6695 203.715L184.035 203.715C186.611 197.719 190.112 192.435 193.163 186.714C203.103 168.075 216.321 148.227 224.911 129.453L215.64 129.453ZM239.595 129.453C236.588 132.88 233.936 138.087 231.664 142.192L222.554 158.694C214.312 173.396 204.989 188.905 197.159 203.715L272.875 203.715L314.58 203.715C313.194 200.492 311.57 197.778 309.881 194.71L273.638 129.453L239.595 129.453ZM287.298 129.453L321.638 191.469C323.852 195.454 326.462 199.718 328.532 203.715L424.826 203.741C426.077 203.745 431.634 203.874 432.482 203.715C427.565 194.671 421.5 185.348 416.203 176.396L403.569 155.313C398.444 146.588 393.744 138.161 388.443 129.453L287.298 129.453ZM86.4469 215.563L82.5869 215.563C85.4682 220.193 90.296 225.474 93.8357 229.974L203.06 365.263C215.146 379.943 227.004 395.671 239.595 409.908C240.228 410.682 240.909 411.485 241.501 412.285C239.967 405.594 238.258 400.783 236.302 394.285L190.921 241.394C188.441 232.79 185.386 224.062 183.069 215.563L86.4469 215.563ZM211.309 215.563L196.071 215.563C196.866 220.282 199.365 227.623 200.821 232.465L244.047 378.297C248.079 392.209 253.185 407.149 256.479 421.196C259.806 410.165 263.109 397.629 265.911 386.371L302.257 260.468C306.562 245.758 311.636 230.185 315.621 215.563L211.309 215.563ZM328.532 215.563C326.663 219.859 324.54 228.271 323.092 233.133L271.531 411.297C274.206 408.788 276.504 405.739 278.802 402.867L317.043 354.863C320.693 350.129 324.353 345.843 328.115 341.228L415.865 233.274C420.619 227.374 425.193 221.324 430.106 215.563L328.532 215.563Z"/></svg>