<?xml version="1.0" encoding="utf-8" ?><svg xmlns="http://www.w3.org/2000/svg" xmlns:xlink="http://www.w3.org/1999/xlink" width="1024" height="1024" viewBox="0 0 1024 1024"><path transform="scale(2 2)" d="M386.503 289.694C386.699 292.024 386.517 296.879 386.513 299.409L386.506 383.231C386.506 388.118 387.079 413.13 385.958 416.18C385.141 418.403 378.599 417.717 376.832 417.733L70.4808 417.749C62.7151 417.719 65.6885 405.526 65.6884 398.913L65.6813 95.7366C65.6679 91.1852 64.0932 85.9607 69.0134 84.042C76.6879 83.8185 74.487 94.5569 74.4831 100.097L74.4693 402.254C76.7123 399.461 79.7495 396.616 82.3046 394.058L206.077 270.718C209.147 267.622 212.839 263.662 216.115 260.946C230.45 272.569 247.816 292.234 261.323 305.536C265.524 300.72 271.089 295.714 275.683 291.156L404.722 162.878C410.268 157.369 417.358 150.543 422.411 144.695L381.485 144.695C376.056 144.696 366.487 145.026 361.436 144.695C351.869 136.395 365.572 135.748 371.218 135.747L438.293 135.759L438.3 201.399C438.3 204.412 438.921 210.614 437.012 213.009C435.627 214.747 432.264 214.764 430.766 213.11C428.865 211.012 429.436 205.949 429.443 203.18L429.436 151.337C423.217 156.282 414.06 166.068 408.053 172.007L279.762 299.864C273.58 305.651 267.487 311.927 261.323 317.842C257.309 314.967 251.549 308.358 247.736 304.659C237.249 294.488 226.927 283.067 216.115 273.3C192.726 295.584 169.863 319.415 146.92 342.242C124.608 364.442 102.008 386.523 79.9436 408.951L377.627 408.951L377.626 304.445C377.624 300.249 377.485 296 377.671 291.811C378.102 286.479 383.13 285.971 386.503 289.694Z"/><path transform="scale(2 2)" d="M262.896 253.385C235.494 254.932 212.052 233.918 210.606 206.511C209.16 179.104 230.26 155.74 257.672 154.394C284.942 153.055 308.16 174.022 309.598 201.287C311.037 228.552 290.155 251.847 262.896 253.385ZM257.129 163.214C234.655 164.855 217.773 184.413 219.433 206.885C221.092 229.357 240.664 246.223 263.135 244.545C285.58 242.869 302.422 223.325 300.764 200.879C299.106 178.433 279.576 161.575 257.129 163.214Z"/></svg>