<?xml version="1.0" encoding="utf-8" ?><svg xmlns="http://www.w3.org/2000/svg" xmlns:xlink="http://www.w3.org/1999/xlink" width="1024" height="1024" viewBox="0 0 1024 1024"><path transform="scale(2 2)" d="M356.705 103.01C356.697 95.6289 356.82 88.1063 356.705 80.7392L426.45 80.7392C427.174 84.3381 426.445 94.8368 426.442 99.0076L426.45 149.885L404.73 149.885L404.73 351.281L426.45 351.281L426.45 421.246L356.705 421.246L356.705 400.945L155.729 400.945C155.023 404.704 157.432 420.961 154.062 421.246L85.6853 421.246L85.6853 351.281C92.9283 351.363 100.278 351.292 107.529 351.281L107.529 149.885C101.247 150.19 92.1917 149.897 85.6853 149.885L85.6871 103.287C85.6873 96.8221 85.3341 86.8244 85.6853 80.7392L155.729 80.7392L155.729 103.01L356.705 103.01ZM136.186 87.8919L92.8305 87.8919C92.5108 91.7941 92.8349 100.623 92.833 105.001L92.8305 142.721L105.625 142.721L148.237 142.721L148.228 102.322C148.23 99.8168 148.555 89.5812 148.237 87.8919L136.186 87.8919ZM363.768 87.8919C364.032 93.1347 363.773 100.383 363.771 105.856L363.768 142.721L419.735 142.721L419.735 87.8919L382.371 87.8823C376.599 87.8809 369.462 87.6819 363.768 87.8919ZM159.57 110.171L155.729 110.171L155.729 149.885L128.274 149.898C124.101 149.9 118.666 150.073 114.63 149.885L114.63 351.281L155.729 351.281L155.714 380.767C155.713 383.253 155.498 391.844 155.729 393.73L352.829 393.73L356.705 393.73L356.705 351.281L397.556 351.281L397.556 149.885L356.705 149.885L356.705 110.171C335.321 109.81 312.721 110.171 291.253 110.172L159.57 110.171ZM364.625 358.43L363.955 358.6C363.394 360.075 363.768 408.362 363.768 414.018C381.636 414.302 400.37 414.017 418.312 414.018L418.974 413.927C420.146 412.082 419.735 395.966 419.736 392.795L419.735 358.43L364.625 358.43ZM92.8305 358.43L92.8305 414.018L148.237 414.018L148.237 358.43C129.947 358.741 111.192 358.249 92.8305 358.43Z"/><path transform="scale(2 2)" d="M214.538 312.794C213.651 299.963 211.293 286.039 209.589 273.256L202.201 215.378C200.932 205.54 199.249 195.456 198.177 185.621C207.645 188.558 219.609 191.191 229.267 193.702L283.362 207.857C292.96 210.329 302.815 212.558 312.334 215.191C307.436 220.406 302.539 224.977 297.473 229.971L277.604 249.757C280.539 253.029 285.139 257.067 288.403 260.346L315.14 287.392C310.91 292.023 305.408 297.039 300.862 301.78L289.827 312.794C276.825 300.475 264.256 287.632 251.662 274.899C239.56 287.641 226.686 299.923 214.538 312.794ZM206.638 195.165C206.91 199.812 207.757 205.075 208.5 209.695C211.162 226.252 212.753 242.965 215.049 259.559L217.927 280.761C218.659 285.943 219.612 291.723 220.128 296.876C229.924 285.927 241.547 275.703 251.662 265.032C263.493 275.34 279.303 291.272 289.827 302.66C292.236 299.898 294.48 297.628 297.092 295.041C299.467 292.637 302.372 289.55 304.875 287.392C302.652 284.654 299.765 281.908 297.241 279.395L286.012 268.261C279.849 262.158 273.945 255.644 267.593 249.757C277.508 239.187 288.038 229.096 298.425 218.993C268.222 211.582 236.737 201.651 206.638 195.165Z"/></svg>